<svg xmlns="http://www.w3.org/2000/svg" viewBox="0 0 200 200" width="200" height="200">
  <rect width="200" height="200" fill="white"/>
  <g transform="translate(100,105)">
    <path d="M-90,20 Q-95,-10 -70,-30 L-30,-40 Q0,-45 0,-45 Q0,-45 30,-40 L70,-30 Q95,-10 90,20 Q95,60 70,70 Q45,80 20,65 L-20,65 Q-45,80 -70,70 Q-95,60 -90,20 Z" fill="#ff4757"/>
    <rect x="-72" y="-10" width="12" height="40" rx="3" fill="white" opacity="0.9"/>
    <rect x="-82" y="0" width="32" height="20" rx="3" fill="white" opacity="0.9"/>
    <circle cx="50" cy="-5" r="9" fill="white" opacity="0.9"/>
    <circle cx="68" cy="12" r="9" fill="white" opacity="0.9"/>
    <circle cx="32" cy="12" r="9" fill="white" opacity="0.9"/>
    <circle cx="50" cy="29" r="9" fill="white" opacity="0.9"/>
    <circle cx="50" cy="-5" r="5" fill="#ff4757"/>
    <circle cx="68" cy="12" r="5" fill="#ff4757"/>
    <circle cx="32" cy="12" r="5" fill="#ff4757"/>
    <circle cx="50" cy="29" r="5" fill="#ff4757"/>
    <rect x="-8" y="-8" width="16" height="9" rx="4" fill="white" opacity="0.7"/>
    <rect x="4" y="-8" width="16" height="9" rx="4" fill="white" opacity="0.7"/>
    <circle cx="-25" cy="30" r="12" fill="#cc1a29"/>
    <circle cx="25" cy="30" r="12" fill="#cc1a29"/>
    <circle cx="-25" cy="30" r="6" fill="#ff4757" stroke="white" stroke-width="1.5"/>
    <circle cx="25" cy="30" r="6" fill="#ff4757" stroke="white" stroke-width="1.5"/>
  </g>
</svg>
