<?xml version="1.0" encoding="UTF-8"?><svg id="Capa_1" xmlns="http://www.w3.org/2000/svg" viewBox="0 0 235.71 270.02"><defs><style>.cls-1{fill:#a3e2e8;}.cls-2{fill:#1bb7d0;}</style></defs><path class="cls-1" d="M31.27,63.4c-4.06-3.6-8.5-5.68-13.85-5.49-8.67,.31-15.57,5.84-17.17,14.99-1.43,8.18,3.55,16.56,11.43,19.3q2.51,.87,2.51,3.46c0,25.99,0,51.98,.05,77.96,0,1.6-.44,2.28-2.02,2.74-10.83,3.14-15.56,16.31-9.71,25.96,6.46,10.65,20.89,10.76,27.93,3.63,.51-.51,.93-.86,1.75-.36,6.85,4.14,13.71,8.24,20.59,12.32,11.8,6.99,23.63,13.96,35.43,20.95,3.74,2.21,7.43,4.5,11.17,6.7,1.01,.6,1.35,1.18,1.04,2.42-3.07,12.37,6.96,23.26,19.68,21.95,10.09-1.04,17.73-12.03,14.94-21.96-.29-1.03-.25-1.7,.83-2.34,11.18-6.59,22.33-13.24,33.49-19.87,10.94-6.49,21.91-12.91,32.79-19.5,1.62-.98,2.37-.88,3.82,.35,5.32,4.51,11.5,5.56,18.01,3.1,6.59-2.49,10.35-7.48,11.49-14.42,1.4-8.44-4.72-17.22-12.88-19.2-1.26-.31-1.22-1.06-1.22-1.99,0-23.34,0-46.67,0-70.01,0-3.13,.06-6.26-.03-9.39-.04-1.3,.4-1.84,1.64-2.21,12.86-3.87,16.83-20.27,7.19-29.59-6.71-6.49-17.62-6.68-24.75-.38-.7,.62-1.21,.98-2.18,.39-9.04-5.42-18.11-10.8-27.17-16.18-13.31-7.9-26.61-15.79-39.94-23.66-.97-.57-1.09-1.2-.92-2.21,1.11-6.68-1.06-12.24-6.02-16.71-7.35-6.6-19.86-5.11-25.81,3.02-2.96,4.06-3.99,8.62-3.17,13.55,.21,1.27-.15,1.9-1.22,2.54-18.48,10.9-36.94,21.84-55.41,32.78-4.1,2.43-8.19,4.88-12.36,7.37ZM103.62,28.91c1.45,1.23,2.69,2.5,4.14,3.43,1.5,.96,3.17,1.73,4.85,2.32,1.18,.41,1.5,.99,1.49,2.17-.04,5.73,.02,11.46,.01,17.18,0,.75-.17,1.5-.23,2.04h7.2c.04-.47,.08-.72,.08-.98,.05-6.05,.11-12.09,.11-18.14,0-1.22,.31-1.93,1.62-2.26,3-.76,5.58-2.33,7.63-4.65,.87-.98,1.59-1.09,2.71-.39,3.77,2.36,7.59,4.66,11.42,6.93,16.08,9.54,32.18,19.07,48.27,28.61,2.28,1.35,4.57,2.68,6.79,4.12,.35,.23,.63,1.06,.51,1.48-.9,2.97-1.03,5.95-.21,8.92,.35,1.26,.1,1.88-1.03,2.53-4.87,2.8-9.67,5.71-14.51,8.56-.73,.43-1.54,.74-2.04,.97,1.31,2.24,2.69,4.61,4.01,6.87,.56-.46,1.17-1.08,1.89-1.52,4.9-2.96,9.83-5.87,14.72-8.84,.86-.52,1.41-.53,2.2,.18,2.02,1.81,4.2,3.49,6.93,4.03,1.53,.3,1.87,1.01,1.87,2.48-.05,14.43-.03,28.85-.03,43.28,0,11.93,0,23.87,.04,35.8,0,1.19-.39,1.61-1.52,2.11-2.39,1.05-4.66,2.43-6.86,3.86-.95,.62-1.58,.97-2.66,.29-4.17-2.63-8.39-5.18-12.6-7.74-1.34-.81-2.72-1.57-4-2.3-1.29,2.24-2.47,4.27-3.63,6.29,5.5,3.3,11.08,6.66,16.67,10,.75,.45,.93,.96,.66,1.85-.94,3.06-.96,6.17,0,9.22,.29,.92,.07,1.36-.68,1.8-3.15,1.85-6.28,3.75-9.43,5.6-8.81,5.19-17.66,10.32-26.44,15.55-10.56,6.29-21.07,12.66-31.59,19.01-.77,.46-1.27,.43-1.91-.25-1.89-2.03-4.26-3.37-6.91-4.05-1.51-.38-1.88-1.06-1.87-2.51,.07-6.49,.03-12.99,.03-19.35h-7.1c-.03,.58-.09,1.14-.09,1.71-.01,5.99-.04,11.99,0,17.98,0,1.18-.39,1.65-1.5,2.16-2.38,1.09-4.65,2.44-6.84,3.89-.9,.6-1.43,.89-2.46,.26-5.93-3.6-11.91-7.12-17.88-10.66-16.45-9.76-32.9-19.53-49.36-29.27-.84-.5-.91-1.01-.82-1.93,.25-2.4,.49-4.84,.34-7.24-.22-3.57-.29-3.43,2.92-5.25,4.82-2.74,9.53-5.68,14.18-8.48-1.29-2.35-2.52-4.58-3.7-6.72-.14,.16-.36,.6-.72,.82-5.38,3.28-10.77,6.56-16.2,9.75-.39,.23-1.22-.04-1.72-.31-2.3-1.27-4.44-2.95-6.87-3.84-1.73-.63-2.11-1.35-2.1-3,.05-14.9,.02-29.81,.02-44.71,0-11.19,.03-22.38-.01-33.57,0-1.37,.32-2.09,1.76-2.48,2.79-.75,5.35-2.08,7.39-4.18,.73-.74,1.24-.46,1.91-.06,5.62,3.36,11.25,6.7,16.74,9.97,1.21-2.02,2.46-4.12,3.8-6.36-5.45-3.2-10.95-6.47-16.49-9.66-1.15-.66-1.55-1.36-1.17-2.67,.8-2.77,.65-5.59-.1-8.33-.34-1.26,.04-1.83,1.05-2.4,3.6-2.03,7.19-4.09,10.74-6.19,12.86-7.62,25.7-15.25,38.54-22.89,6.01-3.58,11.99-7.2,18.04-10.84Z"/><path class="cls-2" d="M117.85,214.3c9.94,1.01,15.74-9.15,13.73-16.51-.25-.91,.1-1.32,.83-1.76,9.87-5.92,19.73-11.85,29.56-17.81,.98-.59,1.57-.5,2.46,.21,5.22,4.2,12.74,4.18,17.69-.35,3.68-3.37,5.94-7.58,4.98-12.87-.95-5.23-4.02-8.78-8.88-10.78-.96-.39-1.27-.83-1.26-1.83,.03-11.73,.02-23.45,0-35.18,0-1.01,.32-1.48,1.27-1.85,6.84-2.66,10.49-9.71,8.61-16.76-.46-1.73-1.01-3.67-2.16-4.92-5.19-5.61-12.96-7.93-20.16-2.56-.99,.74-1.58,.76-2.59,.15-9.67-5.83-19.37-11.61-29.09-17.36-.95-.56-1.28-1.06-1.07-2.25,1.07-6.23-2.55-12.35-8.3-15-9.29-4.29-19.4,3.31-19.77,11.87-.05,1.16,.04,2.34,.23,3.48,.15,.89-.14,1.33-.88,1.77-9.03,5.35-18.11,10.63-27.03,16.16-2.42,1.5-3.96,1.91-6.67,.13-4.84-3.17-10.05-2.48-14.96,.65-4.99,3.19-6.33,8.05-5.78,13.4,.56,5.48,3.71,9.37,8.99,11.32,.84,.31,1.11,.78,1.11,1.65-.02,11.83-.02,23.66,0,35.49,0,.88-.26,1.27-1.12,1.59-6.44,2.36-9.93,8.61-9.04,15.43,.38,2.87,1.76,5.18,3.41,7.23,4.24,5.26,13.48,5.97,18.95,1.6,1.23-.98,1.98-.91,3.26-.13,9.49,5.82,19.03,11.55,28.59,17.26,1.11,.67,1.42,1.25,1.15,2.61-1.31,6.55,2.46,13.14,8.79,15.29,1.61,.55,3.43,.44,5.16,.64Zm41.11-108.94l.48,.21c-.37,.37-.68,.84-1.12,1.1-8.63,5.19-17.28,10.35-25.9,15.56-1.02,.62-1.65,.62-2.59-.22-6.94-6.17-17.29-6.09-24.22,.16-.71,.64-1.18,.76-2.04,.24-8.72-5.25-17.47-10.44-26.18-15.71-.48-.29-.82-1.12-.87-1.73-.13-1.73-.13-3.48-.06-5.21,.02-.5,.32-1.2,.71-1.44,9.93-6.01,19.89-11.97,29.84-17.96,.69-.42,1.14-.42,1.8,.12,5.57,4.55,12.57,4.57,18.06,.04,.68-.56,1.14-.54,1.8-.12,1.39,.88,2.8,1.72,4.21,2.57,8.46,5.06,16.93,10.1,25.38,15.18,.43,.26,.97,.81,.97,1.22,0,2-.17,3.99-.28,5.99Zm-31.43,84.71c-1.65-.9-3.13-1.86-4.72-2.52-.98-.41-1.23-.91-1.22-1.87,.04-10.45,.05-20.9,.02-31.34,0-1.08,.31-1.56,1.39-1.88,9.51-2.8,14.81-12.07,12.33-21.63-.3-1.15,.06-1.58,.95-2.09,3.08-1.77,6.13-3.59,9.17-5.42,5.55-3.33,11.07-6.69,16.64-9.97,.46-.27,1.3-.3,1.79-.07,1.57,.74,3.08,1.61,4.55,2.54,.44,.28,.93,.9,.93,1.37,.05,11.88,.05,23.76,0,35.64,0,.48-.48,1.24-.91,1.38-7.33,2.46-10.45,9.82-9.26,15.72,.1,.48-.32,1.33-.76,1.6-10.29,6.23-20.62,12.39-30.9,18.55Zm-61.23-55h-.02c0-5.89,.02-11.78-.02-17.67,0-.94,.25-1.41,1.16-1.76,1.18-.46,2.46-.94,3.34-1.79,1.35-1.3,2.39-.92,3.74-.09,8.34,5.07,16.7,10.09,25.09,15.06,1.01,.6,.9,1.19,.68,2.08-2.36,9.49,2.89,18.81,12.18,21.48,1.22,.35,1.54,.88,1.54,2.08-.02,10.29,0,20.59,.07,30.88,0,1.21-.2,1.93-1.5,2.32-1.09,.33-2.15,.94-3.05,1.66-.97,.78-1.65,.66-2.66,.05-9.51-5.78-19.04-11.54-28.63-17.2-1.41-.83-1.98-1.52-1.73-3.27,.89-6.22-2.87-12.32-8.77-14.46-1.06-.39-1.47-.87-1.45-2.03,.06-5.78,.03-11.57,.03-17.35Z"/></svg>